<svg xmlns="http://www.w3.org/2000/svg" viewBox="0 0 512 512" width="512" height="512">
<defs>
 <radialGradient id="bg" cx="50%" cy="45%" r="70%"><stop offset="0" stop-color="#1b1236"/><stop offset="1" stop-color="#07060f"/></radialGradient>
 <filter id="glow" x="-30%" y="-30%" width="160%" height="160%"><feGaussianBlur stdDeviation="7" result="b"/><feMerge><feMergeNode in="b"/><feMergeNode in="b"/><feMergeNode in="SourceGraphic"/></feMerge></filter>
 <filter id="glow2" x="-30%" y="-30%" width="160%" height="160%"><feGaussianBlur stdDeviation="5" result="b"/><feMerge><feMergeNode in="b"/><feMergeNode in="SourceGraphic"/></feMerge></filter>
</defs>
<rect width="512" height="512" fill="url(#bg)"/>
<g transform="translate(256 256) scale(1.0) translate(-256 -256)">
 <g filter="url(#glow)" fill="none" stroke="#b36bff" stroke-width="7" stroke-linejoin="round" stroke-linecap="round">
  <path d="M72 148 H 440 Q 468 148 468 176 C 468 270, 436 370, 360 370 C 310 370, 280 362, 256 340 C 232 362, 202 370, 152 370 C 76 370, 44 270, 44 176 Q 44 148 72 148 Z" fill="#1a0f33"/>
 </g>
 <path d="M256.0 154.0 L344.3 205.0 L344.3 307.0 L256.0 358.0 L167.7 307.0 L167.7 205.0 Z" fill="#0a0716" stroke="#0a0716" stroke-width="10" stroke-linejoin="round"/>
 <g filter="url(#glow2)"><path d="M249.9 160.9 Q256.0 157.4 262.1 160.9 L273.4 167.5 Q279.6 171.0 273.4 174.5 L262.1 181.1 Q256.0 184.6 249.9 181.1 L238.6 174.5 Q232.4 171.0 238.6 167.5 Z" fill="#fff23a"/><path d="M279.3 177.9 Q285.4 174.4 291.6 177.9 L302.9 184.5 Q309.0 188.0 302.9 191.5 L291.6 198.1 Q285.4 201.6 279.3 198.1 L268.0 191.5 Q261.9 188.0 268.0 184.5 Z" fill="#fff23a"/><path d="M308.8 194.9 Q314.9 191.4 321.0 194.9 L332.3 201.5 Q338.4 205.0 332.3 208.5 L321.0 215.1 Q314.9 218.6 308.8 215.1 L297.5 208.5 Q291.3 205.0 297.5 201.5 Z" fill="#fff23a"/><path d="M220.4 177.9 Q226.6 174.4 232.7 177.9 L244.0 184.5 Q250.1 188.0 244.0 191.5 L232.7 198.1 Q226.6 201.6 220.4 198.1 L209.1 191.5 Q203.0 188.0 209.1 184.5 Z" fill="#fff23a"/><path d="M249.9 194.9 Q256.0 191.4 262.1 194.9 L273.4 201.5 Q279.6 205.0 273.4 208.5 L262.1 215.1 Q256.0 218.6 249.9 215.1 L238.6 208.5 Q232.4 205.0 238.6 201.5 Z" fill="#fff23a"/><path d="M279.3 211.9 Q285.4 208.4 291.6 211.9 L302.9 218.5 Q309.0 222.0 302.9 225.5 L291.6 232.1 Q285.4 235.6 279.3 232.1 L268.0 225.5 Q261.9 222.0 268.0 218.5 Z" fill="#fff23a"/><path d="M191.0 194.9 Q197.1 191.4 203.2 194.9 L214.5 201.5 Q220.7 205.0 214.5 208.5 L203.2 215.1 Q197.1 218.6 191.0 215.1 L179.7 208.5 Q173.6 205.0 179.7 201.5 Z" fill="#fff23a"/><path d="M220.4 211.9 Q226.6 208.4 232.7 211.9 L244.0 218.5 Q250.1 222.0 244.0 225.5 L232.7 232.1 Q226.6 235.6 220.4 232.1 L209.1 225.5 Q203.0 222.0 209.1 218.5 Z" fill="#fff23a"/><path d="M249.9 228.9 Q256.0 225.4 262.1 228.9 L273.4 235.5 Q279.6 239.0 273.4 242.5 L262.1 249.1 Q256.0 252.6 249.9 249.1 L238.6 242.5 Q232.4 239.0 238.6 235.5 Z" fill="#fff23a"/><path d="M170.6 217.2 Q170.6 210.1 176.7 213.6 L188.0 220.2 Q194.2 223.7 194.2 230.8 L194.2 243.8 Q194.2 250.9 188.0 247.4 L176.7 240.8 Q170.6 237.3 170.6 230.2 Z" fill="#1f9bff"/><path d="M200.1 234.2 Q200.1 227.1 206.2 230.6 L217.5 237.2 Q223.6 240.7 223.6 247.8 L223.6 260.8 Q223.6 267.9 217.5 264.4 L206.2 257.8 Q200.1 254.3 200.1 247.2 Z" fill="#1f9bff"/><path d="M229.5 251.2 Q229.5 244.1 235.6 247.6 L246.9 254.2 Q253.1 257.7 253.1 264.8 L253.1 277.8 Q253.1 284.9 246.9 281.4 L235.6 274.8 Q229.5 271.3 229.5 264.2 Z" fill="#1f9bff"/><path d="M170.6 251.2 Q170.6 244.1 176.7 247.6 L188.0 254.2 Q194.2 257.7 194.2 264.8 L194.2 277.8 Q194.2 284.9 188.0 281.4 L176.7 274.8 Q170.6 271.3 170.6 264.2 Z" fill="#1f9bff"/><path d="M200.1 268.2 Q200.1 261.1 206.2 264.6 L217.5 271.2 Q223.6 274.7 223.6 281.8 L223.6 294.8 Q223.6 301.9 217.5 298.4 L206.2 291.8 Q200.1 288.3 200.1 281.2 Z" fill="#1f9bff"/><path d="M229.5 285.2 Q229.5 278.1 235.6 281.6 L246.9 288.2 Q253.1 291.7 253.1 298.8 L253.1 311.8 Q253.1 318.9 246.9 315.4 L235.6 308.8 Q229.5 305.3 229.5 298.2 Z" fill="#1f9bff"/><path d="M170.6 285.2 Q170.6 278.1 176.7 281.6 L188.0 288.2 Q194.2 291.7 194.2 298.8 L194.2 311.8 Q194.2 318.9 188.0 315.4 L176.7 308.8 Q170.6 305.3 170.6 298.2 Z" fill="#1f9bff"/><path d="M200.1 302.2 Q200.1 295.1 206.2 298.6 L217.5 305.2 Q223.6 308.7 223.6 315.8 L223.6 328.8 Q223.6 335.9 217.5 332.4 L206.2 325.8 Q200.1 322.3 200.1 315.2 Z" fill="#1f9bff"/><path d="M229.5 319.2 Q229.5 312.1 235.6 315.6 L246.9 322.2 Q253.1 325.7 253.1 332.8 L253.1 345.8 Q253.1 352.9 246.9 349.4 L235.6 342.8 Q229.5 339.3 229.5 332.2 Z" fill="#1f9bff"/><path d="M258.9 264.8 Q258.9 257.7 265.1 254.2 L276.4 247.6 Q282.5 244.1 282.5 251.2 L282.5 264.2 Q282.5 271.3 276.4 274.8 L265.1 281.4 Q258.9 284.9 258.9 277.8 Z" fill="#ff2b4e"/><path d="M288.4 247.8 Q288.4 240.7 294.5 237.2 L305.8 230.6 Q311.9 227.1 311.9 234.2 L311.9 247.2 Q311.9 254.3 305.8 257.8 L294.5 264.4 Q288.4 267.9 288.4 260.8 Z" fill="#ff2b4e"/><path d="M317.8 230.8 Q317.8 223.7 324.0 220.2 L335.3 213.6 Q341.4 210.1 341.4 217.2 L341.4 230.2 Q341.4 237.3 335.3 240.8 L324.0 247.4 Q317.8 250.9 317.8 243.8 Z" fill="#ff2b4e"/><path d="M258.9 298.8 Q258.9 291.7 265.1 288.2 L276.4 281.6 Q282.5 278.1 282.5 285.2 L282.5 298.2 Q282.5 305.3 276.4 308.8 L265.1 315.4 Q258.9 318.9 258.9 311.8 Z" fill="#ff2b4e"/><path d="M288.4 281.8 Q288.4 274.7 294.5 271.2 L305.8 264.6 Q311.9 261.1 311.9 268.2 L311.9 281.2 Q311.9 288.3 305.8 291.8 L294.5 298.4 Q288.4 301.9 288.4 294.8 Z" fill="#ff2b4e"/><path d="M317.8 264.8 Q317.8 257.7 324.0 254.2 L335.3 247.6 Q341.4 244.1 341.4 251.2 L341.4 264.2 Q341.4 271.3 335.3 274.8 L324.0 281.4 Q317.8 284.9 317.8 277.8 Z" fill="#ff2b4e"/><path d="M258.9 332.8 Q258.9 325.7 265.1 322.2 L276.4 315.6 Q282.5 312.1 282.5 319.2 L282.5 332.2 Q282.5 339.3 276.4 342.8 L265.1 349.4 Q258.9 352.9 258.9 345.8 Z" fill="#ff2b4e"/><path d="M288.4 315.8 Q288.4 308.7 294.5 305.2 L305.8 298.6 Q311.9 295.1 311.9 302.2 L311.9 315.2 Q311.9 322.3 305.8 325.8 L294.5 332.4 Q288.4 335.9 288.4 328.8 Z" fill="#ff2b4e"/><path d="M317.8 298.8 Q317.8 291.7 324.0 288.2 L335.3 281.6 Q341.4 278.1 341.4 285.2 L341.4 298.2 Q341.4 305.3 335.3 308.8 L324.0 315.4 Q317.8 318.9 317.8 311.8 Z" fill="#ff2b4e"/></g>
</g></svg>